<svg xmlns="http://www.w3.org/2000/svg" viewBox="0 0 32 32" width="32" height="32" role="img" aria-labelledby="title desc" shape-rendering="crispEdges">
  <title id="title">Ready to flick pixel cursor, widened coiled finger</title>
  <desc id="desc">Pixel-art white glove hand in side view, ready to flick, with a slightly wider coiled finger.</desc>
  <rect x="20" y="3" width="2" height="1" fill="#000000"/>
  <rect x="18" y="4" width="5" height="1" fill="#000000"/>
  <rect x="17" y="5" width="3" height="1" fill="#000000"/>
  <rect x="20" y="5" width="2" height="1" fill="#ffffff"/>
  <rect x="22" y="5" width="1" height="1" fill="#000000"/>
  <rect x="15" y="6" width="3" height="1" fill="#000000"/>
  <rect x="18" y="6" width="3" height="1" fill="#ffffff"/>
  <rect x="21" y="6" width="2" height="1" fill="#000000"/>
  <rect x="14" y="7" width="3" height="1" fill="#000000"/>
  <rect x="17" y="7" width="3" height="1" fill="#ffffff"/>
  <rect x="20" y="7" width="2" height="1" fill="#000000"/>
  <rect x="13" y="8" width="2" height="1" fill="#000000"/>
  <rect x="15" y="8" width="3" height="1" fill="#ffffff"/>
  <rect x="18" y="8" width="9" height="1" fill="#000000"/>
  <rect x="12" y="9" width="3" height="1" fill="#000000"/>
  <rect x="15" y="9" width="3" height="1" fill="#ffffff"/>
  <rect x="18" y="9" width="13" height="1" fill="#000000"/>
  <rect x="9" y="10" width="4" height="1" fill="#000000"/>
  <rect x="13" y="10" width="16" height="1" fill="#ffffff"/>
  <rect x="29" y="10" width="2" height="1" fill="#000000"/>
  <rect x="7" y="11" width="4" height="1" fill="#000000"/>
  <rect x="11" y="11" width="19" height="1" fill="#ffffff"/>
  <rect x="30" y="11" width="1" height="1" fill="#000000"/>
  <rect x="2" y="12" width="7" height="1" fill="#000000"/>
  <rect x="9" y="12" width="10" height="1" fill="#ffffff"/>
  <rect x="19" y="12" width="1" height="1" fill="#000000"/>
  <rect x="20" y="12" width="3" height="1" fill="#ffffff"/>
  <rect x="23" y="12" width="8" height="1" fill="#000000"/>
  <rect x="1" y="13" width="6" height="1" fill="#000000"/>
  <rect x="7" y="13" width="11" height="1" fill="#ffffff"/>
  <rect x="18" y="13" width="12" height="1" fill="#000000"/>
  <rect x="0" y="14" width="2" height="1" fill="#000000"/>
  <rect x="2" y="14" width="15" height="1" fill="#ffffff"/>
  <rect x="17" y="14" width="2" height="1" fill="#000000"/>
  <rect x="0" y="15" width="2" height="1" fill="#000000"/>
  <rect x="2" y="15" width="15" height="1" fill="#ffffff"/>
  <rect x="17" y="15" width="2" height="1" fill="#000000"/>
  <rect x="0" y="16" width="2" height="1" fill="#000000"/>
  <rect x="2" y="16" width="16" height="1" fill="#ffffff"/>
  <rect x="18" y="16" width="1" height="1" fill="#000000"/>
  <rect x="0" y="17" width="2" height="1" fill="#000000"/>
  <rect x="2" y="17" width="11" height="1" fill="#ffffff"/>
  <rect x="13" y="17" width="3" height="1" fill="#000000"/>
  <rect x="16" y="17" width="2" height="1" fill="#ffffff"/>
  <rect x="18" y="17" width="1" height="1" fill="#000000"/>
  <rect x="0" y="18" width="2" height="1" fill="#000000"/>
  <rect x="2" y="18" width="10" height="1" fill="#ffffff"/>
  <rect x="12" y="18" width="2" height="1" fill="#000000"/>
  <rect x="15" y="18" width="1" height="1" fill="#000000"/>
  <rect x="16" y="18" width="2" height="1" fill="#ffffff"/>
  <rect x="18" y="18" width="1" height="1" fill="#000000"/>
  <rect x="1" y="19" width="2" height="1" fill="#000000"/>
  <rect x="3" y="19" width="9" height="1" fill="#ffffff"/>
  <rect x="12" y="19" width="2" height="1" fill="#000000"/>
  <rect x="15" y="19" width="1" height="1" fill="#000000"/>
  <rect x="16" y="19" width="2" height="1" fill="#ffffff"/>
  <rect x="18" y="19" width="2" height="1" fill="#000000"/>
  <rect x="1" y="20" width="2" height="1" fill="#000000"/>
  <rect x="3" y="20" width="9" height="1" fill="#ffffff"/>
  <rect x="12" y="20" width="2" height="1" fill="#000000"/>
  <rect x="15" y="20" width="1" height="1" fill="#000000"/>
  <rect x="16" y="20" width="2" height="1" fill="#ffffff"/>
  <rect x="18" y="20" width="2" height="1" fill="#000000"/>
  <rect x="2" y="21" width="2" height="1" fill="#000000"/>
  <rect x="4" y="21" width="8" height="1" fill="#ffffff"/>
  <rect x="12" y="21" width="2" height="1" fill="#000000"/>
  <rect x="15" y="21" width="1" height="1" fill="#000000"/>
  <rect x="16" y="21" width="2" height="1" fill="#ffffff"/>
  <rect x="18" y="21" width="2" height="1" fill="#000000"/>
  <rect x="2" y="22" width="3" height="1" fill="#000000"/>
  <rect x="5" y="22" width="8" height="1" fill="#ffffff"/>
  <rect x="13" y="22" width="3" height="1" fill="#000000"/>
  <rect x="16" y="22" width="2" height="1" fill="#ffffff"/>
  <rect x="18" y="22" width="2" height="1" fill="#000000"/>
  <rect x="3" y="23" width="4" height="1" fill="#000000"/>
  <rect x="7" y="23" width="11" height="1" fill="#ffffff"/>
  <rect x="18" y="23" width="2" height="1" fill="#000000"/>
  <rect x="5" y="24" width="6" height="1" fill="#000000"/>
  <rect x="11" y="24" width="6" height="1" fill="#ffffff"/>
  <rect x="17" y="24" width="3" height="1" fill="#000000"/>
  <rect x="9" y="25" width="5" height="1" fill="#000000"/>
  <rect x="14" y="25" width="2" height="1" fill="#ffffff"/>
  <rect x="16" y="25" width="3" height="1" fill="#000000"/>
  <rect x="11" y="26" width="7" height="1" fill="#000000"/>
</svg>